<svg xmlns="http://www.w3.org/2000/svg" width="230px" height="130px" data-name="Layer 1" viewBox="0 0 168 168"><path fill="#2d4356" d="M94.305 17.332a3 3 0 1 0-3-3 3.003 3.003 0 0 0 3 3zm0-4.5a1.5 1.5 0 1 1-1.5 1.5 1.501 1.501 0 0 1 1.5-1.5zm70 31.5a2 2 0 1 0 2 2 2.002 2.002 0 0 0-2-2zm0 3a1 1 0 1 1 1-1 1.001 1.001 0 0 1-1 1zm-159-44a2 2 0 1 0 2 2 2.002 2.002 0 0 0-2-2zm0 3a1 1 0 1 1 1-1 1.001 1.001 0 0 1-1 1zm156 0a2 2 0 1 0 2 2 2.002 2.002 0 0 0-2-2zm0 3a1 1 0 1 1 1-1 1.001 1.001 0 0 1-1 1zm-123 8a2 2 0 1 0-2 2 2.002 2.002 0 0 0 2-2zm-3 0a1 1 0 1 1 1 1 1.001 1.001 0 0 1-1-1z"/><path fill="#0bceb2" d="m8.888 35.343 1.487-1.956-.939-.531-.955 2.19H8.45l-.97-2.175-.955.548 1.471 1.909v.031l-2.301-.298v1.064l2.316-.297v.032l-1.486 1.908.891.564 1.018-2.207h.031l.939 2.191.986-.563-1.502-1.878v-.031l2.362.281v-1.064l-2.362.313v-.031zM63.081 3.398l-.856 1.099.514.325.586-1.271h.017l.541 1.262.568-.325-.865-1.081v-.018l1.36.162v-.612l-1.36.18v-.018l.856-1.126-.54-.307-.55 1.261h-.018l-.559-1.252-.55.316.847 1.099v.018l-1.325-.171v.612l1.334-.171v.018zM155.305 32.045v-1.043l-2.317.306v-.03l1.458-1.918-.921-.522-.936 2.148h-.031l-.951-2.133-.937.537 1.443 1.873v.03l-2.257-.291v1.043l2.272-.291v.031l-1.458 1.871.875.553.998-2.164h.03l.921 2.149.967-.553-1.473-1.841v-.031l2.317.276zM131.748 4.917l1.258-1.654-.795-.45-.807 1.853h-.027l-.82-1.84-.809.463 1.245 1.616v.026l-1.946-.252v.9l1.959-.251v.027l-1.258 1.614.755.477.861-1.867h.026l.795 1.854.834-.477-1.271-1.588v-.027l1.998.238v-.9l-1.998.265v-.027z"/><circle cx="2" cy="150.332" r="2" fill="#2d4356"/><path fill="#2d4356" d="M11 148.332H8a2 2 0 0 0 0 4h3a2 2 0 0 0 0-4Z"/><path fill="#0bceb2" d="M118.154 156.332h-8.308a2.006 2.006 0 0 0 0 4h8.308a2.006 2.006 0 0 0 0-4zm-60 0h-8.308a2.006 2.006 0 0 0 0 4h8.308a2.006 2.006 0 0 0 0-4zm45.846 0H64a2 2 0 0 0 0 4h15.94v2H72a2 2 0 0 0 0 4h25a2 2 0 0 0 0-4h-8.94v-2H104a2 2 0 0 0 0-4z"/><path fill="#2d4356" d="m92.08 88.438.243 1.7a10.54 10.54 0 0 1 2.927-1.91 19.954 19.954 0 0 1 3.71-8.792 8.245 8.245 0 0 0-5.021 2.734 7.869 7.869 0 0 0-1.86 6.268zm48.96-9.002a19.953 19.953 0 0 1 3.71 8.795 10.49 10.49 0 0 1 2.927 1.91l.243-1.704a7.868 7.868 0 0 0-1.859-6.267 8.245 8.245 0 0 0-5.021-2.734zm-7.948 3.065a12.059 12.059 0 0 1 3.208 4.83h4.168l.006.001a16.06 16.06 0 0 0-5.48-8.468 15.955 15.955 0 0 1-1.902 3.637zm-33.566 4.83h4.175a12.059 12.059 0 0 1 3.207-4.83 15.956 15.956 0 0 1-1.901-3.637 16.06 16.06 0 0 0-5.48 8.468z"/><path fill="#0bceb2" d="M120 85.332a12 12 0 1 0-12-12 12.014 12.014 0 0 0 12 12zm0-20a8 8 0 1 1-8 8 8.01 8.01 0 0 1 8-8zm0 47a6 6 0 1 0-6-6 6.007 6.007 0 0 0 6 6zm0-8a2 2 0 1 1-2 2 2 2 0 0 1 2-2z"/><path fill="#2d4356" d="M21.939 82.17a7.869 7.869 0 0 0-1.86 6.268l.244 1.7a10.54 10.54 0 0 1 2.927-1.91 19.954 19.954 0 0 1 3.71-8.792 8.245 8.245 0 0 0-5.021 2.734zm47.101-2.734a19.953 19.953 0 0 1 3.71 8.795 10.49 10.49 0 0 1 2.927 1.91l.243-1.704a7.868 7.868 0 0 0-1.859-6.267 8.245 8.245 0 0 0-5.021-2.734zm-7.948 3.065a12.059 12.059 0 0 1 3.208 4.83h4.168l.006.001a16.06 16.06 0 0 0-5.48-8.468 15.955 15.955 0 0 1-1.902 3.637zm-33.566 4.83h4.175a12.059 12.059 0 0 1 3.207-4.83 15.956 15.956 0 0 1-1.901-3.637 16.06 16.06 0 0 0-5.48 8.468z"/><path fill="#0bceb2" d="M36 73.332a12 12 0 1 0 12-12 12.014 12.014 0 0 0-12 12zm20 0a8 8 0 1 1-8-8 8.01 8.01 0 0 1 8 8zm-8 39a6 6 0 1 0-6-6 6.007 6.007 0 0 0 6 6zm0-8a2 2 0 1 1-2 2 2 2 0 0 1 2-2zm66-68a2 2 0 0 0-2-2H56a2 2 0 0 0 0 4h56a2 2 0 0 0 2-2z"/><path fill="#2d4356" d="M22 73.332a2 2 0 0 0 2-2v-42a2.002 2.002 0 0 1 2-2h116a2.002 2.002 0 0 1 2 2v42a2 2 0 1 0 4 0v-42a6.007 6.007 0 0 0-6-6H26a6.007 6.007 0 0 0-6 6v42a2 2 0 0 0 2 2zm138 75h-3a2 2 0 0 0 0 4h3a2 2 0 0 0 0-4z"/><circle cx="166" cy="150.332" r="2" fill="#2d4356"/><path fill="#2d4356" d="M150.721 148.332H140v-19h4a4 4 0 0 0 4-4v-4a4 4 0 0 0-4-4h-.342c.004-.025.014-.047.019-.071l3.23-18.54a6.193 6.193 0 0 0-1.377-5.058 6.586 6.586 0 0 0-5.062-2.331H99.531a6.614 6.614 0 0 0-4.943 2.194 6.224 6.224 0 0 0-1.546 4.849l2.163 18.618c.013.117.05.225.072.339h-23.62c.005-.025.015-.047.02-.071l3.23-18.54a6.193 6.193 0 0 0-1.377-5.058 6.586 6.586 0 0 0-5.062-2.331H27.531a6.614 6.614 0 0 0-4.943 2.194 6.224 6.224 0 0 0-1.546 4.849l2.163 18.618c.016.142.06.273.087.41A3.994 3.994 0 0 0 20 121.332v4a4 4 0 0 0 4 4h4v19H17.279a2.017 2.017 0 1 0 0 4H150.72a2.017 2.017 0 1 0 0-4Zm-14.721-10H32v-9h104ZM97.575 96.186a2.61 2.61 0 0 1 1.956-.854h40.937a2.597 2.597 0 0 1 2 .905 2.176 2.176 0 0 1 .499 1.797l-3.23 18.54a.995.995 0 0 1-1.01.758h-38.534a.989.989 0 0 1-1.015-.801l-2.163-18.618a2.19 2.19 0 0 1 .56-1.727Zm-72 0a2.61 2.61 0 0 1 1.956-.854h40.937a2.597 2.597 0 0 1 2 .905 2.176 2.176 0 0 1 .499 1.797l-3.23 18.54a.995.995 0 0 1-1.01.758H28.193a.989.989 0 0 1-1.015-.801l-2.163-18.618a2.19 2.19 0 0 1 .56-1.727ZM24 125.332v-4h120v4Zm8 17h104v6H32Z"/></svg>