<svg xmlns="http://www.w3.org/2000/svg" width="230px" height="130px"><path fill="#051031" fill-rule="evenodd" d="M58.808 5.5 46.076 0v136.475l12.732-4.519V5.5ZM36.536 26.957l-12.173-5.051v118.167l12.173-3.7V26.959Zm-1.564 12.855-8.911-3.035v3.059l8.911 2.768v-2.792Zm0-7.418-8.911-3.493v3.06l8.911 3.254V32.4Zm0 14.834-8.911-2.577v3.059q4.456 1.143 8.911 2.283V47.23Zm0 7.417q-4.455-1.057-8.911-2.119v3.06l8.911 1.8v-2.739Zm0 7.418-8.911-1.662v3.059l8.911 1.313v-2.71Zm0 7.417-8.911-1.2v3.059l8.911.827v-2.682Zm0 7.417-8.911-.746v3.059l8.911.343V76.9Zm0 7.417-8.911-.289v3.06l8.911-.143v-2.628Zm0 7.417-8.911.17v3.059l8.911-.628v-2.6Zm0 7.417q-4.455.315-8.911.627v3.059l8.911-1.112V99.15Zm0 7.417-8.911 1.085v3.059l8.911-1.6v-2.546Zm0 7.418-8.911 1.542v3.059l8.911-2.083v-2.518Zm0 7.416-8.911 2v3.059l8.911-2.568v-2.49Zm0 7.418-8.911 2.458v3.059l8.911-3.054v-2.463ZM31.082 9.5 45.087.926v135.967l-8.063-1.089V25.973l-5.942-2.356V9.5Zm7.285 8.832 3.945-1.667v3.855l-3.945 1.4v-3.588Zm0-6.815 3.944-1.83v3.854l-3.944 1.563v-3.587ZM32.872 14.4l3.06-1.562v2.99l-3.06 1.355V14.4Zm5.495 10.749 3.945-1.506V27.5l-3.945 1.24v-3.588Zm0 6.816q1.973-.67 3.945-1.344v3.855q-1.973.537-3.945 1.077v-3.588Zm0 6.816 3.945-1.181v3.854l-3.945.914V38.78Zm0 6.817 3.945-1.02v3.854l-3.945.753V45.6Zm0 6.815 3.945-.857v3.854l-3.945.591v-3.588Zm0 6.817 3.945-.7v3.855l-3.945.429v-3.588Zm0 6.817q1.973-.269 3.945-.534v3.854l-3.945.267v-3.587Zm0 6.815 3.945-.372v3.855l-3.945.1v-3.587Zm0 6.817 3.945-.21v3.854l-3.945-.057v-3.587Zm0 6.815 3.945-.047V90.3q-1.973-.108-3.945-.219v-3.588Zm0 6.817 3.945.114v3.854q-1.973-.189-3.945-.381V93.31Zm0 6.816 3.945.276v3.855q-1.973-.273-3.945-.543v-3.588Zm0 6.817 3.945.437v3.856l-3.945-.706v-3.587Zm0 6.816 3.945.6v3.854l-3.945-.867v-3.587Zm0 6.816 3.945.762v3.855l-3.945-1.03v-3.587Zm0 6.816 3.944.925v3.853l-3.944-1.19v-3.588Zm-5.494-106.4 3.06-1.436v2.99l-3.06 1.23v-2.784ZM.102 18.951l12.194-7.464v14.994L9.882 27.57v-2.382L6.448 26.64v2.484l-2.119.958V27.7l-2.665 1.25v2.334l-1.134.513-.425.268v-13.12Zm6.343 1.757 3.373-1.84.061 3.48-3.434 1.36v-3Zm-4.784 2.51 2.664-1.359v2.727l-2.664 1.179v-2.547Zm22.706-7.23-11.085-4.794v14.838l7.525-3.4-5.309-1.681V17.78l6.283 2.237v2.175l2.587-1.159v-5.045Zm-24.37 16.23 23.385-10.142v117.932L.003 135.527V32.215Zm2.961 9c.521-.193 1.041-.389 1.561-.583v2.733l-1.561.486v-2.636Zm-.012-5.472 1.561-.631v2.734l-1.561.532v-2.635Zm3.408-1.327 1.809-.73v2.921l-1.809.616v-2.807Zm4-1.585 2.491-1.006V35l-2.491.849v-3.018Zm5.068-1.969 3.908-1.578v3.542l-3.908 1.332v-3.3ZM2.973 46.691l1.561-.536v2.733l-1.561.438v-2.635Zm.012 5.473 1.561-.489v2.734l-1.561.39v-2.635Zm.012 5.473q.78-.222 1.561-.441v2.733l-1.561.344v-2.636Zm.011 5.473 1.562-.4v2.734l-1.562.3v-2.635Zm.012 5.472 1.562-.346v2.733l-1.562.248V68.58Zm.012 5.473 1.561-.3v2.733l-1.561.2v-2.636Zm.012 5.473 1.561-.252v2.733l-1.561.154v-2.635ZM3.056 85l1.561-.2v2.733l-1.561.107V85Zm.012 5.473 1.561-.157v2.733c-.52.021-1.041.04-1.561.06v-2.636Zm.012 5.473c.52-.038 1.041-.074 1.561-.111v2.735l-1.561.011v-2.635Zm.011 5.472 1.562-.062v2.733l-1.562-.035v-2.636Zm.012 5.472c.521 0 1.041-.01 1.561-.015v2.735q-.78-.044-1.561-.083v-2.637Zm.012 5.473 1.562.033v2.733l-1.562-.13v-2.636Zm.012 5.473 1.561.08v2.734l-1.561-.178v-2.636Zm.012 5.473 1.561.127v2.733l-1.561-.224v-2.636Zm.011 5.473 1.562.174v2.734l-1.562-.272v-2.638Zm3.215.3 1.809.2v2.921l-1.809-.315v-2.808Zm3.851.376 2.491.277v3.175l-2.491-.433v-3.019Zm5.216.689 3.908.435v3.543l-3.908-.681v-3.3Zm-9.068-6.633 1.809.146v2.922l-1.809-.261v-2.807Zm3.861.26 2.491.2v3.175l-2.491-.359v-3.018Zm5.206.532 3.908.317v3.543l-3.908-.562v-3.3Zm-9.067-6.361 1.809.092v2.921l-1.809-.2v-2.808Zm3.868.145 2.492.126v3.176l-2.492-.283v-3.019Zm5.2.376 3.908.2v3.543l-3.908-.443v-3.3Zm-9.068-6.09 1.81.037v2.921l-1.81-.15v-2.808Zm3.878.029 2.491.051v3.176l-2.491-.208v-3.019Zm5.189.22 3.908.081v3.542l-3.908-.325v-3.3Zm-9.067-5.817 1.809-.018v2.921l-1.809-.1v-2.806Zm3.886-.086 2.491-.025v3.175l-2.491-.132v-3.018Zm5.181.063 3.907-.038v3.542l-3.907-.207v-3.3Zm-9.068-5.546 1.81-.072v2.92l-1.81-.04v-2.807Zm3.9-.2 2.491-.1v3.174l-2.491-.056v-3.02Zm5.172-.092 3.908-.157v3.543l-3.908-.089v-3.3Zm-9.067-5.275 1.809-.127v2.921l-1.809.014v-2.808Zm3.9-.316 2.491-.175v3.175l-2.491.018v-3.018Zm5.163-.249 3.908-.276v3.543l-3.908.029v-3.3Zm-9.067-5 1.81-.183v2.921l-1.81.068V90.1Zm3.912-.433 2.491-.251V92.6c-.83.032-1.661.062-2.491.1v-3.019Zm5.155-.4 3.908-.394v3.542l-3.908.149v-3.3Zm-9.067-4.732 1.809-.236v2.92l-1.809.124v-2.808Zm3.92-.547 2.491-.326v3.175l-2.491.17v-3.019Zm5.146-.562 3.908-.512v3.543l-3.908.267v-3.3Zm-9.066-4.459 1.809-.292V81.6l-1.809.178v-2.807Zm3.928-.663 2.491-.4v3.174l-2.491.245V78.3Zm5.138-.718 3.907-.631V80.5l-3.907.385v-3.3Zm-9.067-4.187q.9-.176 1.809-.347v2.921l-1.809.233V73.4Zm3.937-.779 2.491-.477v3.175l-2.491.321v-3.019Zm5.129-.874 3.908-.749v3.542l-3.908.5v-3.3Zm-9.066-3.917 1.809-.4v2.92l-1.809.288v-2.808Zm3.946-.892 2.491-.553v3.174l-2.491.4v-3.017Zm5.12-1.032 3.907-.867v3.542l-3.907.622v-3.3Zm-9.067-3.643 1.809-.457v2.921l-1.809.343v-2.807Zm3.954-1.01 2.491-.628V63.8l-2.491.472v-3.019Zm5.112-1.186 3.907-.987v3.543l-3.907.74v-3.3ZM6.362 56.7l1.809-.511v2.92l-1.809.4v-2.807Zm3.963-1.124 2.49-.705v3.176l-2.49.547v-3.018Zm5.1-1.344 3.907-1.105v3.543l-3.907.859v-3.3Zm-9.067-3.1 1.809-.565v2.92l-1.809.452v-2.807Zm3.972-1.239 2.491-.779v3.174l-2.491.623v-3.018Zm5.094-1.5 3.907-1.223v3.53l-3.907.978v-3.3Zm-9.066-2.83 1.809-.62v2.92q-.9.254-1.809.507v-2.807Zm3.98-1.355 2.491-.854v3.174l-2.491.7V44.2Zm5.086-1.656 3.907-1.342v3.543l-3.907 1.1v-3.3Zm-9.067-2.557q.9-.339 1.81-.675v2.92l-1.81.562v-2.807Zm3.989-1.47 2.491-.93v3.174q-1.245.389-2.491.773v-3.017Zm5.077-1.813 3.907-1.46v3.543l-3.907 1.214v-3.3Zm40.414-13.829-7.216-2.086v3.642l7.216 1.756v-3.312Zm0-12.745-7.216-2.567V11.2l7.216 2.284v-3.358Zm0 25.491-7.216-1.605v3.641l7.216 1.229V35.62Zm0 12.746-7.216-1.125v3.643l7.216.7v-3.217Zm0 12.745-7.216-.642v3.642l7.216.17v-3.17Zm0 12.747-7.216-.163v3.642l7.216-.356v-3.123Zm0 12.746-7.216.318v3.643l7.216-.886V86.6Zm0 12.746-7.216.8v3.642l7.216-1.413V99.35Zm0 12.745q-3.607.642-7.216 1.281v3.643q3.607-.973 7.216-1.943V112.1Zm0 12.746-7.216 1.763v3.641l7.216-2.469v-2.935Z"/></svg>