<svg xmlns="http://www.w3.org/2000/svg"  width="230px" height="130px" data-name="Layer 1 copy 4" viewBox="0 0 48 48"><path d="M33.74,18.05v-.5a5.8,5.8,0,0,1-3.9,1.65,5.788,5.788,0,0,1-3.97-1.72v.47l3.94,3.6Z"/><path d="M34.75,8.3a2.5,2.5,0,0,1-.8-1.08,12.041,12.041,0,0,1-3.7.94,7.509,7.509,0,0,1-5-.95c-.6-.31-1.1.4-1.43,1.13a9.033,9.033,0,0,0-.44,1.2l-.01.03v.01a13.659,13.659,0,0,0,2.5,5.98,5.242,5.242,0,0,0,3.97,2.34,5.181,5.181,0,0,0,3.9-2.26A13.564,13.564,0,0,0,36.3,9.57S35.25,8.72,34.75,8.3Z"/><path d="M22.58 7.91l.06-.12c.59-1.29 1.37-1.95 2.32-1.95a1.89 1.89 0 0 1 .89.22 6.039 6.039 0 0 0 3.14.87c.34 0 .71-.02 1.13-.06a10.7 10.7 0 0 0 3.26-.82l1.41-.68.41 1.5a2.207 2.207 0 0 0 .4.45c.34.28.95.78 1.28 1.04.03-.09.07-.2.1-.31a.031.031 0 0 1 .01-.02 6.744 6.744 0 0 0 .02-3.86C36.17 1.25 32.54.76 30.55.76a10.019 10.019 0 0 0-3.18.46 17.672 17.672 0 0 1-1.87.56 1.889 1.889 0 0 1-1.32-.29 3.127 3.127 0 0 1-.67-.55s-2.2 2.55-.95 6.91C22.57 7.87 22.57 7.89 22.58 7.91zM2.19 19.25H7.06V17.28l1.2-1.19a1.189 1.189 0 0 0 .36-.81l.28-4.81a2.411 2.411 0 0 0-1.49.24H7.4V7.55s.04-2.88-2.56-2.88a3.107 3.107 0 0 0-1.21.23C1.46 5.75.75 8.81.75 9.66v4.41a6.406 6.406 0 0 0 1.43 3.24zM28.49 26.59l-1.17-2.03h-.01l-2.2 1.23-1.45-5.78-.81.27-6.88 2.27a2.962 2.962 0 0 0-.96.51L7.56 28.9V20.55H1.91V31.78a7.515 7.515 0 0 0 .37 2.4 3.419 3.419 0 0 0 4.84 2l9.65-6.07V47.13l1.29.01 11.03.04-3.16-5.66zM44.48 23.03l-7.73-2.72-.8-.28L34.5 25.79l-2.2-1.24-1.18 2.04 2.56 14.93-3.17 5.67 10.17.04a.34.34 0 0 1-.01-.1V31.91a.65.65 0 1 1 1.3 0V47.13a.34.34 0 0 1-.01.1l5.29.02V26.93A4.127 4.127 0 0 0 44.48 23.03z"/><polygon points="24.87 19.47 25.95 23.83 28.7 22.29 25.32 19.22 24.87 19.47"/><polygon points="33.66 23.83 34.74 19.48 34.34 19.26 30.92 22.3 31.32 22.52 33.66 23.83"/><polygon points="29.8 26.61 27.29 41.28 29.8 45.8 32.32 41.28 29.8 26.61"/><polygon points="31.16 23.92 29.81 23.16 28.45 23.92 29.81 26.27 31.16 23.92"/></svg>